<svg id="SvgjsSvg1092" width="256" height="256" xmlns="http://www.w3.org/2000/svg" version="1.1"
	xmlns:xlink="http://www.w3.org/1999/xlink" xmlns:svgjs="http://svgjs.com/svgjs">
	<defs id="SvgjsDefs1093"></defs>
	<g id="SvgjsG1094"><svg xmlns="http://www.w3.org/2000/svg" viewBox="0 0 64 64" width="256" height="256">
			<path
				d="M23 19a2 2 0 1 1-2-2 2 2 0 0 1 2 2Zm-9-2a2 2 0 1 0 2 2 2 2 0 0 0-2-2Zm16 2a2 2 0 1 0-2 2 2 2 0 0 0 2-2Zm29 13.33v9.34a9.35 9.35 0 0 1-8 9.24V58a1 1 0 0 1-.62.92.84.84 0 0 1-.38.08 1 1 0 0 1-.71-.29L41.59 51h-5.26A9.35 9.35 0 0 1 27 41.67V33h-4.59l-7.7 7.71A1 1 0 0 1 14 41a.84.84 0 0 1-.38-.08A1 1 0 0 1 13 40v-7.09a9.35 9.35 0 0 1-8-9.24v-9.34A9.35 9.35 0 0 1 14.33 5h13.34A9.35 9.35 0 0 1 37 14.33V23h12.67A9.35 9.35 0 0 1 59 32.33ZM27.67 31h.25A7.36 7.36 0 0 0 35 24v-9.67A7.34 7.34 0 0 0 27.67 7H14.33A7.34 7.34 0 0 0 7 14.33v9.34A7.34 7.34 0 0 0 14.33 31a1 1 0 0 1 .67 1.74v4.85l6.29-6.3A1 1 0 0 1 22 31ZM57 32.33A7.34 7.34 0 0 0 49.67 25H36.9a7.91 7.91 0 0 1-.33 1.44c-.07.21-.15.42-.23.63v.1a6.28 6.28 0 0 1-.27.59l-.06.12c-.1.18-.2.37-.31.54l-.07.12c-.11.18-.23.36-.35.53l-.07.08a9 9 0 0 1-1.32 1.44l-.14.13-.35.28-.29.22-.34.22c-.11.08-.23.15-.35.22l-.32.18-.41.21-.31.14a4.52 4.52 0 0 1-.47.18l-.29.11-.62.22h-.2q-.37.09-.78.15v8.77A7.34 7.34 0 0 0 36.33 49H42a1 1 0 0 1 .71.29l6.29 6.3v-4.85a1 1 0 0 1 .67-1.74A7.34 7.34 0 0 0 57 41.67ZM43 35a2 2 0 1 0 2 2 2 2 0 0 0-2-2Zm-7 0a2 2 0 1 0 2 2 2 2 0 0 0-2-2Zm14 0a2 2 0 1 0 2 2 2 2 0 0 0-2-2Z"
				data-name="6-forum" fill="#000000" class="color000 svgShape"></path>
		</svg></g>
</svg>