<svg xmlns="http://www.w3.org/2000/svg" enable-background="new 0 0 48 48" viewBox="0 0 48 48" width="256" height="256">
	<circle cx="24" cy="15.8" r="7.9" fill="#010101" class="color010101 svgShape"></circle>
	<path fill="#010101"
		d="M30 27.9H18c-2.9 0-5.3 2.4-5.3 5.3v12.5c3.5 1.1 7.3 1.6 11.3 1.6 4 0 7.8-.6 11.3-1.6V33.2C35.3 30.3 32.9 27.9 30 27.9zM36.2.6c-3.6 0-6.7 2.5-7.6 5.8 3.5 1.7 5.9 5.3 5.9 9.4 0 .1 0 .3 0 .4.6.1 1.1.2 1.8.2 4.4 0 7.9-3.5 7.9-7.9S40.5.6 36.2.6z"
		class="color010101 svgShape"></path>
	<path fill="#010101"
		d="M42.2 20.6h-8.9c-1.1 2.1-2.9 3.8-5.1 4.8H30c4.3 0 7.9 3.5 7.9 7.9v6.9c3.4-.1 6.6-.7 9.6-1.6V25.9C47.5 23 45.1 20.6 42.2 20.6zM13.6 16.2c0-.1 0-.3 0-.4 0-4.1 2.4-7.7 5.9-9.4-.9-3.4-4-5.8-7.6-5.8-4.4 0-7.9 3.5-7.9 7.9s3.5 7.9 7.9 7.9C12.4 16.4 13 16.3 13.6 16.2zM10.1 33.2c0-4.3 3.5-7.9 7.9-7.9h1.9c-2.2-1-4-2.7-5.1-4.8H5.8c-2.9 0-5.3 2.4-5.3 5.3v12.5c3 .9 6.3 1.5 9.6 1.6V33.2z"
		class="color010101 svgShape"></path>
</svg>