<svg xmlns="http://www.w3.org/2000/svg" viewBox="0 0 256 256" width="256" height="256">
	<path fill="#8852a8" d="M220.415 210.667H35.585C58.29 236.032 91.278 252 128 252s69.71-15.968 92.415-41.333z"
		class="color8852a8 svgShape"></path>
	<path fill="#526faa"
		d="M35.585 210.667h184.831a123.922 123.922 0 0 0 24.519-41.333H11.066a123.905 123.905 0 0 0 24.519 41.333z"
		class="color526faa svgShape"></path>
	<path fill="#7bac51"
		d="M244.934 169.333C249.505 156.404 252 142.494 252 128H4c0 14.494 2.495 28.404 7.066 41.333h233.868z"
		class="color7bac51 svgShape"></path>
	<path fill="#fcc24c" d="M11.066 86.667C6.495 99.596 4 113.506 4 128h248c0-14.494-2.495-28.404-7.066-41.333H11.066z"
		class="colorfcc24c svgShape"></path>
	<path fill="#f9934e"
		d="M11.066 86.667h233.869a123.912 123.912 0 0 0-24.519-41.333H35.585a123.885 123.885 0 0 0-24.519 41.333z"
		class="colorf9934e svgShape"></path>
	<path fill="#ff4397" d="M35.585 45.333h184.831C197.71 19.968 164.722 4 128 4S58.29 19.968 35.585 45.333z"
		class="colorff4397 svgShape"></path>
	<path fill="#6a348a"
		d="M208.415 210.667c-21.461 23.975-52.111 39.546-86.415 41.182 1.989.095 3.988.151 6 .151 36.722 0 69.71-15.968 92.415-41.333h-12z"
		class="color6a348a svgShape"></path>
	<path fill="#34518c"
		d="M232.934 169.333a123.912 123.912 0 0 1-24.519 41.333h12a123.922 123.922 0 0 0 24.519-41.333h-12z"
		class="color34518c svgShape"></path>
	<path fill="#5d8e33" d="M240 128c0 14.494-2.495 28.404-7.066 41.333h12C249.505 156.404 252 142.494 252 128h-12z"
		class="color5d8e33 svgShape"></path>
	<path fill="#dea42e"
		d="M244.934 86.667h-12C237.505 99.596 240 113.506 240 128h12c0-14.494-2.495-28.404-7.066-41.333z"
		class="colordea42e svgShape"></path>
	<path fill="#db7530"
		d="M220.415 45.333h-12a123.922 123.922 0 0 1 24.519 41.333h12a123.905 123.905 0 0 0-24.519-41.333z"
		class="colordb7530 svgShape"></path>
	<path fill="#e12579"
		d="M128 4c-2.012 0-4.011.056-6 .151 34.304 1.635 64.955 17.207 86.415 41.182h12C197.71 19.968 164.722 4 128 4z"
		class="colore12579 svgShape"></path>
	<path fill="#a670c6"
		d="M47.585 210.667c21.461 23.975 52.111 39.546 86.415 41.182-1.989.095-3.988.151-6 .151-36.722 0-69.71-15.968-92.415-41.333h12z"
		class="colora670c6 svgShape"></path>
	<path fill="#708dc8"
		d="M23.066 169.333a123.912 123.912 0 0 0 24.519 41.333h-12a123.922 123.922 0 0 1-24.519-41.333h12z"
		class="color708dc8 svgShape"></path>
	<path fill="#99ca6f" d="M16 128c0 14.494 2.495 28.404 7.066 41.333h-12C6.495 156.404 4 142.494 4 128h12z"
		class="color99ca6f svgShape"></path>
	<path fill="#fce06a" d="M11.066 86.667h12C18.495 99.596 16 113.506 16 128H4c0-14.494 2.495-28.404 7.066-41.333z"
		class="colorfce06a svgShape"></path>
	<path fill="#f9b16c" d="M35.585 45.333h12a123.9 123.9 0 0 0-24.519 41.334h-12a123.9 123.9 0 0 1 24.519-41.334z"
		class="colorf9b16c svgShape"></path>
	<path fill="#ff61b5"
		d="M128 4c2.012 0 4.011.056 6 .151-34.304 1.636-64.955 17.207-86.415 41.182h-12C58.29 19.968 91.278 4 128 4z"
		class="colorff61b5 svgShape"></path>
	<path fill="#690589"
		d="M220.415 47.333H35.584a2 2 0 0 1-1.491-3.334C57.986 17.308 92.213 2 128 2c35.786 0 70.014 15.308 93.905 42a2 2 0 0 1-1.49 3.333zm-180.242-4h175.653C192.884 19.552 161.132 6 128 6 94.868 6 63.116 19.552 40.173 43.333z"
		class="color690589 svgShape"></path>
	<path fill="#690589"
		d="M244.935 88.666H11.066A2 2 0 0 1 9.18 86c5.491-15.535 13.873-29.667 24.914-42a1.998 1.998 0 0 1 1.49-.666h184.831a2 2 0 0 1 1.49.666c11.04 12.333 19.423 26.464 24.915 42a2 2 0 0 1-1.885 2.666zm-231.006-4h228.143c-5.209-13.719-12.786-26.262-22.555-37.333H36.483c-9.769 11.072-17.346 23.615-22.554 37.333zm3.138 30.668a2 2 0 0 1-1.989-2.236 81.276 81.276 0 0 1 2.44-12.304 2 2 0 1 1 3.852 1.078 77.115 77.115 0 0 0-2.319 11.696 2 2 0 0 1-1.984 1.766z"
		class="color690589 svgShape"></path>
	<path fill="#690589"
		d="M252 130H4a2 2 0 0 1-2-2c0-14.39 2.416-28.521 7.18-42a2.001 2.001 0 0 1 1.886-1.334h233.869c.848 0 1.604.534 1.886 1.334 4.764 13.478 7.18 27.609 7.18 42a2.002 2.002 0 0 1-2.001 2zM6.016 126h243.968a121.65 121.65 0 0 0-6.473-37.334H12.489A121.656 121.656 0 0 0 6.016 126z"
		class="color690589 svgShape"></path>
	<path fill="#690589"
		d="M244.935 171.333H11.066A2 2 0 0 1 9.18 170C4.416 156.521 2 142.391 2 128a2 2 0 0 1 2-2h248a2 2 0 0 1 2 2c0 14.392-2.416 28.523-7.18 42a2 2 0 0 1-1.885 1.333zm-232.446-4h231.023A121.64 121.64 0 0 0 249.985 130H6.016a121.64 121.64 0 0 0 6.473 37.333z"
		class="color690589 svgShape"></path>
	<path fill="#690589"
		d="M220.415 212.667H35.584a1.998 1.998 0 0 1-1.49-.666C23.054 199.667 14.671 185.535 9.18 170a2 2 0 0 1 1.886-2.666h233.869a2 2 0 0 1 1.886 2.666c-5.492 15.536-13.875 29.667-24.915 42.001a2.007 2.007 0 0 1-1.491.666zm-183.932-4h183.034c9.769-11.071 17.346-23.614 22.555-37.333H13.929c5.208 13.718 12.785 26.261 22.554 37.333z"
		class="color690589 svgShape"></path>
	<path fill="#690589"
		d="M128 254c-35.787 0-70.014-15.308-93.906-41.999a2 2 0 0 1 1.491-3.334h184.831a2 2 0 0 1 1.49 3.334C198.014 238.692 163.786 254 128 254zm-87.827-41.333C63.116 236.448 94.868 250 128 250s64.884-13.552 87.826-37.333H40.173z"
		class="color690589 svgShape"></path>
	<path fill="#f4efed"
		d="M65.448 75.856c-14.536 14.536-14.536 38.102 0 52.638L128 191.046l62.552-62.553c14.536-14.536 14.536-38.102 0-52.638-14.535-14.535-38.102-14.535-52.638 0L128 85.77l-9.915-9.915c-14.535-14.535-38.102-14.535-52.637.001z"
		class="colorf4efed svgShape"></path>
	<path fill="#690589"
		d="M128 193.046a1.99 1.99 0 0 1-1.414-.586l-62.553-62.552c-15.292-15.292-15.292-40.174 0-55.466 15.292-15.292 40.174-15.292 55.466 0l8.501 8.5 8.501-8.5c15.292-15.293 40.174-15.291 55.466 0 15.292 15.292 15.292 40.174 0 55.466l-62.553 62.552a1.992 1.992 0 0 1-1.414.586zM91.767 66.971c-9.02 0-18.039 3.433-24.905 10.299-13.732 13.732-13.732 36.077-.001 49.81L128 188.217l61.139-61.138c13.732-13.733 13.732-36.077 0-49.81-13.732-13.731-36.077-13.731-49.81 0l-9.915 9.915a2 2 0 0 1-2.828 0l-9.914-9.915c-6.867-6.865-15.886-10.298-24.905-10.298z"
		class="color690589 svgShape"></path>
	<path fill="#690589"
		d="M78.291 124.056v-18.681c0-.95.76-1.742 1.741-1.742.981 0 1.773.792 1.773 1.742v16.907h8.58c.919 0 1.741.792 1.741 1.773 0 .95-.823 1.741-1.741 1.741H80.033a1.735 1.735 0 0 1-1.742-1.74zm15.578-9.625c0-6.364 5.256-11.43 11.683-11.43 2.691 0 5.256.918 7.219 2.469.823.602.95 1.773.349 2.565a1.843 1.843 0 0 1-2.565.285 8.223 8.223 0 0 0-5.002-1.709c-2.28 0-4.274.854-5.699 2.311-1.488 1.425-2.375 3.356-2.375 5.509 0 2.09.886 4.021 2.375 5.446 1.425 1.456 3.419 2.312 5.699 2.312 1.583 0 3.071-.475 4.338-1.203v-4.338h-4.528a1.825 1.825 0 0 1-1.805-1.805c0-1.013.823-1.773 1.805-1.773h6.301c1.013 0 1.836.76 1.836 1.773v6.997c0 .221-.063.348-.095.538-.032.063-.032.095-.063.158v.032c-.095.285-.285.538-.602.76a11.68 11.68 0 0 1-7.187 2.47c-6.428-.001-11.684-5.035-11.684-11.367zm26.754 9.625v-18.681c0-.982.792-1.742 1.741-1.742H126.86a6.013 6.013 0 0 1 6.016 6.016 5.959 5.959 0 0 1-1.203 3.609c1.899 1.203 3.197 3.324 3.197 5.731 0 3.768-3.039 6.807-6.775 6.807h-5.604c-.032 0-.032-.032-.032-.032-.064 0-.064.032-.095.032a1.754 1.754 0 0 1-1.741-1.74zm3.514-11.842h2.723c1.393 0 2.501-1.171 2.501-2.564a2.487 2.487 0 0 0-2.501-2.502h-2.723v5.066zm0 10.069h3.958c1.805-.032 3.261-1.456 3.261-3.293 0-1.805-1.456-3.229-3.261-3.261h-3.958v6.554zm28.211-15.135h-5.034v16.908c0 .981-.76 1.741-1.741 1.741-.949 0-1.741-.76-1.741-1.741v-16.908h-5.003c-.981 0-1.741-.823-1.741-1.773 0-.982.76-1.742 1.741-1.742h13.52c.95 0 1.742.76 1.742 1.742-.001.95-.793 1.773-1.743 1.773zm27.578 21.784c-1.741 1.33-3.547 1.995-5.225 1.995h-.095c-2.217 0-4.085-.887-5.794-1.9a3.967 3.967 0 0 0-1.932-.475c-1.045 0-2.121.443-2.248.538-.633.348-1.361.285-1.837-.095-.031-.032-.095-.032-.189-.063-.031-.032-.031-.032-.063-.032-.158-.222-.349-.412-.443-.729-.475-.95-.031-1.995.855-2.438l.095-.063a13.885 13.885 0 0 1-3.515-2.406 12.388 12.388 0 0 1-3.166-8.264c0-3.166 1.234-6.047 3.166-8.169 2.026-2.185 4.812-3.515 7.916-3.515 3.102 0 5.92 1.33 7.852 3.515 2.026 2.121 3.229 5.003 3.229 8.169 0 3.198-1.203 6.111-3.229 8.264a12.212 12.212 0 0 1-3.515 2.501l-.728.285c1.329.728 2.532 1.14 3.546 1.14.918 0 1.805-.222 3.103-1.203.792-.633 1.932-.475 2.564.316.634.793.507 1.932-.347 2.629zM162.29 120.7a6.889 6.889 0 0 0 5.161 2.28c2.025 0 3.831-.855 5.224-2.28 1.361-1.456 2.185-3.451 2.185-5.699 0-2.248-.823-4.243-2.185-5.636-1.393-1.456-3.198-2.311-5.224-2.311a6.803 6.803 0 0 0-5.161 2.311c-1.361 1.393-2.185 3.388-2.185 5.636 0 2.247.824 4.242 2.185 5.699z"
		class="color690589 svgShape"></path>
</svg>